<?xml version="1.0" standalone="no"?>
<!DOCTYPE svg PUBLIC "-//W3C//DTD SVG 20010904//EN"
 "http://www.w3.org/TR/2001/REC-SVG-20010904/DTD/svg10.dtd">
<svg version="1.0" xmlns="http://www.w3.org/2000/svg"
 width="225.000000pt" height="225.000000pt" viewBox="0 0 225.000000 225.000000"
 preserveAspectRatio="xMidYMid meet">

<g transform="translate(0.000000,225.000000) scale(0.100000,-0.100000)"
fill="#000000" stroke="none">
<path d="M1101 2166 c-19 -23 -10 -176 11 -189 12 -8 21 -7 32 2 20 17 23 170
4 189 -16 16 -33 15 -47 -2z"/>
<path d="M507 1923 c-20 -19 -3 -54 53 -107 52 -49 62 -56 80 -46 33 17 24 42
-38 103 -54 53 -79 67 -95 50z"/>
<path d="M1648 1873 c-62 -62 -70 -86 -38 -103 18 -10 29 -3 81 46 47 46 59
63 57 83 -5 46 -38 37 -100 -26z"/>
<path d="M1032 1890 c-136 -25 -243 -83 -338 -183 -99 -105 -151 -223 -161
-368 -12 -172 46 -326 173 -457 l74 -77 0 -161 0 -162 35 -31 c34 -30 35 -32
35 -104 0 -67 3 -77 26 -101 15 -14 31 -26 35 -26 5 0 9 -18 9 -40 0 -50 22
-85 62 -99 40 -14 246 -14 286 0 40 14 62 49 62 99 0 22 4 40 9 40 4 0 20 12
35 26 23 24 26 34 26 101 0 72 1 74 35 104 l35 31 0 162 0 161 73 75 c237 243
236 603 -2 841 -80 80 -174 134 -272 158 -69 16 -177 21 -237 11z m200 -71
c92 -19 194 -75 262 -142 105 -106 156 -229 156 -377 0 -153 -51 -271 -167
-387 l-73 -72 0 -164 c0 -113 -4 -167 -12 -175 -7 -7 -31 -12 -55 -12 l-43 0
-2 278 -3 277 -24 3 c-31 5 -41 -12 -41 -68 0 -45 -1 -46 -52 -72 l-53 -25
-52 25 c-52 26 -53 27 -53 72 0 56 -10 73 -41 68 l-24 -3 -3 -278 -2 -277 -43
0 c-24 0 -48 5 -55 12 -8 8 -12 62 -12 175 l0 164 -72 72 c-117 116 -168 234
-168 388 0 107 24 192 78 275 124 190 344 287 554 243z m-54 -985 l52 26 0
-185 0 -185 -105 0 -105 0 0 185 0 185 53 -26 53 -26 52 26z m162 -472 c0 -32
-5 -63 -12 -70 -9 -9 -68 -12 -205 -12 -220 0 -213 -3 -213 89 l0 51 215 0
215 0 0 -58z m-80 -181 c0 -38 -11 -41 -135 -41 -124 0 -135 3 -135 41 l0 29
135 0 135 0 0 -29z"/>
<path d="M924 1706 c-87 -44 -165 -121 -206 -203 -25 -52 -28 -65 -18 -78 25
-30 46 -17 79 49 45 93 119 155 234 201 31 12 38 19 35 37 -5 36 -44 33 -124
-6z"/>
<path d="M674 1315 c-9 -23 3 -45 24 -45 25 0 44 23 36 44 -8 20 -53 21 -60 1z"/>
<path d="M254 1315 c-3 -8 -3 -22 0 -30 5 -13 22 -15 98 -13 92 3 93 3 93 28
0 25 -1 25 -93 28 -76 2 -93 0 -98 -13z"/>
<path d="M1804 1315 c-3 -8 -3 -22 0 -30 5 -13 22 -15 98 -13 92 3 93 3 93 28
0 25 -1 25 -93 28 -76 2 -93 0 -98 -13z"/>
<path d="M559 783 c-47 -45 -59 -62 -57 -82 5 -44 34 -36 98 25 60 57 71 79
48 102 -19 19 -26 15 -89 -45z"/>
<path d="M1602 828 c-23 -23 -12 -45 48 -102 64 -61 93 -69 98 -25 2 20 -10
37 -57 82 -63 60 -70 64 -89 45z"/>
</g>
</svg>
