<?xml version="1.0" standalone="no"?>
<!DOCTYPE svg PUBLIC "-//W3C//DTD SVG 20010904//EN"
 "http://www.w3.org/TR/2001/REC-SVG-20010904/DTD/svg10.dtd">
<svg version="1.0" xmlns="http://www.w3.org/2000/svg"
 width="225.000000pt" height="225.000000pt" viewBox="0 0 225.000000 225.000000"
 preserveAspectRatio="xMidYMid meet">

<g transform="translate(0.000000,225.000000) scale(0.100000,-0.100000)"
fill="#000000" stroke="none">
<path d="M1504 2187 c-32 -34 -83 -89 -113 -121 -45 -48 -57 -57 -70 -47 -38
27 -44 24 -103 -37 -53 -57 -60 -61 -79 -50 -19 12 -26 7 -85 -57 -127 -137
-137 -151 -124 -175 10 -19 8 -26 -12 -49 -13 -14 -51 -55 -83 -91 -32 -36
-66 -66 -74 -66 -9 -1 -21 -2 -27 -3 -15 -1 -144 -149 -144 -165 0 -18 325
-310 349 -314 27 -5 163 146 157 173 -4 16 16 44 76 110 73 81 84 90 112 87
26 -3 37 3 77 49 l46 53 44 -26 c63 -37 143 -121 177 -187 43 -81 55 -148 51
-287 -4 -111 -6 -124 -37 -186 -37 -76 -124 -164 -151 -152 -9 4 -40 9 -69 12
-62 5 -127 -16 -162 -53 -23 -25 -25 -25 -207 -25 l-183 0 0 25 c0 24 3 25 54
25 180 0 287 77 290 208 l1 57 -460 0 -460 0 -3 -41 c-6 -78 54 -166 135 -200
17 -8 64 -17 102 -20 l71 -7 0 -101 c0 -113 14 -154 63 -190 26 -19 45 -21
228 -24 l199 -4 30 -41 31 -42 -216 -5 c-177 -4 -217 -8 -225 -20 -15 -24 -12
-176 4 -189 9 -8 179 -10 617 -9 l604 3 3 102 c3 114 7 109 -78 115 -31 3 -42
13 -109 100 l-74 98 70 68 c82 80 142 178 175 282 20 65 23 96 23 235 0 187
-12 242 -80 381 -51 105 -142 211 -235 273 -33 21 -65 41 -72 44 -10 3 -9 9 5
24 21 24 22 47 2 63 -8 7 -15 17 -15 22 0 5 47 62 105 126 58 64 105 123 105
132 0 15 -122 132 -171 163 -26 17 -26 17 -85 -46z m175 -122 c0 -5 -41 -54
-92 -109 l-93 -98 -57 52 -57 52 97 104 96 104 52 -47 c29 -27 53 -52 54 -58z
m-271 -215 c51 -46 92 -87 92 -90 -1 -3 -16 -22 -35 -44 l-34 -38 -110 98
c-61 54 -111 100 -111 103 0 3 16 22 37 43 42 44 31 49 161 -72z m-131 -121
c79 -72 143 -135 141 -139 -2 -4 -30 -37 -63 -73 l-61 -65 -89 81 c-50 44
-116 104 -148 134 l-58 53 63 70 c35 38 65 70 67 70 2 0 68 -59 148 -131z
m408 -204 c89 -89 138 -170 176 -295 20 -64 24 -96 24 -225 0 -138 -3 -157
-28 -232 -35 -101 -108 -208 -185 -268 l-56 -45 -12 39 c-6 21 -19 51 -29 68
l-17 30 51 48 c152 142 186 438 75 657 -30 58 -140 177 -188 203 -42 23 -44
31 -14 62 18 19 19 27 10 47 -7 17 -7 27 0 34 19 19 107 -37 193 -123z m-476
-82 c3 -2 -19 -29 -130 -156 l-37 -41 -43 36 c-24 20 -75 65 -113 100 l-69 64
88 97 88 97 106 -97 c58 -54 108 -99 110 -100z m-361 -111 c53 -49 115 -105
137 -125 l40 -36 -40 -40 c-21 -23 -43 -41 -47 -41 -6 0 -143 121 -257 225
-11 11 -7 21 25 59 21 25 40 46 42 46 2 0 47 -40 100 -88z m307 -514 c-4 -13
-18 -38 -32 -56 -46 -61 -52 -62 -371 -62 -283 0 -290 0 -322 23 -37 24 -65
60 -75 95 l-6 22 406 0 406 0 -6 -22z m-355 -227 c0 -74 -10 -71 205 -71 l193
0 4 -70 3 -70 -252 0 -252 0 -20 26 c-18 23 -21 41 -21 125 l0 99 70 0 70 0 0
-39z m670 -11 c42 -21 80 -80 80 -121 0 -13 -9 -42 -21 -66 -50 -103 -189
-109 -249 -10 -42 68 -14 162 60 199 46 23 82 23 130 -2z m214 -275 l66 -85
-258 0 -259 0 -32 45 -32 45 45 0 c25 0 48 -5 52 -11 13 -22 90 -49 138 -49
73 0 132 32 169 92 16 26 33 48 38 48 4 0 37 -38 73 -85z m196 -200 l0 -45
-555 0 -555 0 0 45 0 45 555 0 555 0 0 -45z"/>
</g>
</svg>
