<?xml version="1.0" standalone="no"?>
<!DOCTYPE svg PUBLIC "-//W3C//DTD SVG 20010904//EN"
 "http://www.w3.org/TR/2001/REC-SVG-20010904/DTD/svg10.dtd">
<svg version="1.0" xmlns="http://www.w3.org/2000/svg"
 width="225.000000pt" height="225.000000pt" viewBox="0 0 225.000000 225.000000"
 preserveAspectRatio="xMidYMid meet">

<g transform="translate(0.000000,225.000000) scale(0.100000,-0.100000)"
fill="#000000" stroke="none">
<path d="M1066 2236 c-91 -34 -140 -102 -139 -196 1 -118 84 -200 203 -200 64
0 106 18 149 63 62 65 71 171 22 251 -45 73 -156 111 -235 82z m150 -87 c80
-74 67 -185 -26 -231 -67 -34 -139 -12 -181 54 -40 65 -7 167 66 199 36 16
113 4 141 -22z"/>
<path d="M405 2136 c-38 -17 -80 -62 -94 -99 -18 -46 -13 -124 9 -167 45 -87
163 -124 255 -80 126 61 142 240 29 327 -30 23 -49 28 -103 30 -41 2 -77 -2
-96 -11z m150 -66 c93 -58 74 -196 -31 -230 -44 -15 -109 7 -137 46 -81 111
51 256 168 184z"/>
<path d="M1680 2132 c-19 -10 -48 -36 -64 -56 -26 -31 -31 -48 -34 -104 -3
-60 0 -72 26 -113 102 -159 352 -89 352 98 0 66 -27 122 -76 160 -49 37 -150
44 -204 15z m156 -61 c33 -20 64 -75 64 -114 0 -36 -40 -90 -84 -111 -32 -16
-44 -17 -75 -8 -48 15 -90 60 -97 103 -17 106 101 186 192 130z"/>
<path d="M965 1783 c-74 -11 -163 -35 -202 -54 -38 -19 -49 -20 -112 -10 -161
25 -392 5 -498 -44 -89 -40 -94 -55 -91 -285 l3 -195 1060 0 1060 0 3 195 c2
181 1 197 -18 228 -54 87 -334 137 -573 101 -64 -10 -78 -9 -99 5 -56 36 -177
58 -343 61 -88 2 -173 1 -190 -2z m381 -79 c95 -19 146 -44 162 -79 8 -17 12
-85 12 -195 l0 -170 -65 0 -65 0 0 138 c0 75 -4 143 -9 150 -4 8 -19 12 -32
10 -24 -3 -24 -4 -27 -150 l-3 -148 -194 0 -194 0 -3 148 c-3 146 -3 147 -27
150 -13 2 -28 -2 -32 -10 -5 -7 -9 -75 -9 -150 l0 -138 -65 0 -65 0 0 170 c0
190 5 212 60 240 34 17 146 44 230 54 64 8 247 -3 326 -20z m-700 -50 l29 -5
-3 -195 -3 -194 -184 0 -184 0 -3 128 -3 127 -25 0 -25 0 -3 -127 -3 -128 -59
0 -60 0 0 153 0 153 28 26 c31 30 111 56 210 68 67 9 233 5 288 -6z m1352 -15
c50 -13 86 -28 104 -46 l28 -27 0 -153 0 -153 -60 0 -59 0 -3 128 -3 127 -25
0 -25 0 -3 -127 -3 -128 -184 0 -184 0 -3 195 -3 195 40 5 c22 2 51 7 65 9 51
9 244 -6 318 -25z"/>
<path d="M62 973 l3 -128 110 -13 c181 -21 168 -16 193 -73 l21 -51 -84 -108
c-47 -59 -85 -114 -85 -121 0 -20 292 -309 312 -309 9 0 63 37 119 81 l103 82
53 -18 c61 -21 57 -12 74 -170 6 -60 16 -118 21 -128 8 -15 29 -17 223 -17
194 0 215 2 223 18 5 9 15 67 21 127 17 158 13 149 74 170 l53 18 103 -82 c56
-44 110 -81 119 -81 20 0 312 289 312 309 0 7 -38 62 -85 121 l-84 108 21 50
c24 58 7 51 203 75 l100 12 3 128 3 127 -351 0 -350 0 -4 -22 c-3 -13 -7 -42
-10 -66 -11 -104 -96 -214 -206 -265 -93 -44 -197 -44 -290 0 -110 51 -195
161 -206 265 -3 24 -7 53 -10 66 l-4 22 -350 0 -351 0 3 -127z m652 0 c47
-192 214 -323 411 -323 197 0 364 131 411 323 l17 67 288 0 289 0 0 -69 0 -69
-117 -12 c-65 -7 -127 -16 -138 -20 -24 -9 -90 -163 -79 -182 4 -7 37 -51 74
-98 37 -47 70 -91 75 -99 5 -9 -27 -48 -106 -127 -63 -63 -118 -114 -124 -114
-5 0 -55 36 -110 80 -56 46 -107 79 -115 76 -47 -14 -147 -60 -156 -72 -6 -8
-17 -70 -24 -139 l-14 -125 -171 0 -171 0 -14 125 c-7 69 -18 131 -24 139 -9
12 -109 58 -156 72 -8 3 -59 -30 -115 -76 -55 -44 -105 -80 -110 -80 -6 0 -61
51 -124 114 -79 79 -111 118 -106 127 5 8 38 52 75 99 37 47 70 91 74 98 11
19 -55 173 -79 182 -11 4 -73 13 -137 20 l-118 12 0 69 0 69 289 0 288 0 17
-67z"/>
</g>
</svg>
