<?xml version="1.0" standalone="no"?>
<!DOCTYPE svg PUBLIC "-//W3C//DTD SVG 20010904//EN"
 "http://www.w3.org/TR/2001/REC-SVG-20010904/DTD/svg10.dtd">
<svg version="1.0" xmlns="http://www.w3.org/2000/svg"
 width="225.000000pt" height="225.000000pt" viewBox="0 0 225.000000 225.000000"
 preserveAspectRatio="xMidYMid meet">

<g transform="translate(0.000000,225.000000) scale(0.100000,-0.100000)"
fill="#000000" stroke="none">
<path d="M1071 2117 c-39 -20 -62 -59 -68 -120 l-6 -57 -137 0 c-124 0 -140
-2 -164 -21 -26 -20 -26 -21 -26 -162 0 -123 3 -147 20 -180 18 -34 20 -56 20
-253 0 -135 4 -223 11 -236 25 -46 47 -48 558 -48 275 0 490 4 504 9 14 6 35
20 46 32 20 22 21 33 21 248 0 200 2 227 18 244 14 16 18 43 20 172 l3 152
-27 22 c-24 19 -39 21 -170 21 l-144 0 0 58 c0 64 -15 94 -60 117 -38 20 -382
22 -419 2z m413 -69 c9 -12 16 -42 16 -65 l0 -43 -220 0 -220 0 0 47 c0 81 4
83 221 83 183 0 188 -1 203 -22z m-544 -228 c0 -64 18 -113 45 -124 9 -3 143
-6 298 -6 206 1 286 4 298 13 28 21 39 54 39 116 l0 61 105 0 105 0 0 -133 c0
-132 0 -133 -27 -160 -54 -51 -209 -100 -343 -109 l-45 -3 -3 58 -3 57 -129 0
-129 0 -3 -57 -3 -58 -45 3 c-89 6 -206 34 -276 68 -94 44 -104 64 -104 211 0
60 3 113 7 116 3 4 53 7 110 7 l103 0 0 -60z m620 -5 l0 -65 -280 0 -280 0 0
65 0 65 280 0 280 0 0 -65z m-202 -377 l-3 -103 -75 0 -75 0 -3 103 -3 102 81
0 81 0 -3 -102z m-501 33 c48 -17 133 -36 188 -43 l100 -14 5 -64 5 -65 125 0
125 0 5 65 5 64 100 14 c55 7 140 26 188 43 49 16 90 29 93 29 2 0 4 -83 4
-184 0 -154 -3 -187 -16 -200 -14 -14 -73 -16 -504 -16 -431 0 -490 2 -504 16
-13 13 -16 46 -16 200 0 101 2 184 4 184 3 0 44 -13 93 -29z"/>
<path d="M374 1775 c-9 -22 0 -30 87 -80 83 -48 114 -53 114 -20 0 13 -24 33
-80 67 -84 50 -112 57 -121 33z"/>
<path d="M2065 1742 c-56 -34 -80 -54 -80 -67 0 -34 36 -27 120 24 55 33 80
54 80 67 0 33 -37 26 -120 -24z"/>
<path d="M320 1505 c-10 -12 -10 -18 0 -30 10 -13 33 -15 114 -13 100 3 101 3
101 28 0 25 -1 25 -101 28 -81 2 -104 0 -114 -13z"/>
<path d="M2024 1505 c-15 -38 2 -45 104 -45 76 0 102 4 112 15 10 12 10 18 0
30 -10 11 -36 15 -112 15 -78 0 -100 -3 -104 -15z"/>
<path d="M455 1282 c-56 -34 -80 -54 -80 -67 0 -34 36 -27 120 23 56 34 80 54
80 67 0 34 -36 27 -120 -23z"/>
<path d="M1984 1315 c-9 -22 0 -30 87 -80 83 -48 114 -53 114 -20 0 13 -24 33
-80 67 -84 50 -112 57 -121 33z"/>
<path d="M615 961 c-33 -10 -111 -37 -174 -60 -63 -22 -115 -41 -116 -41 -1 0
-7 17 -13 39 -19 63 -46 67 -171 28 -78 -24 -109 -39 -124 -59 l-19 -26 109
-343 c93 -293 113 -345 135 -362 l27 -20 116 37 c132 42 147 57 127 123 -6 20
-10 38 -9 39 1 2 23 8 47 15 44 11 53 9 260 -59 118 -38 233 -73 256 -77 51
-8 121 9 199 48 109 54 770 419 789 436 51 45 60 139 18 198 -29 41 -85 67
-131 60 -20 -2 -155 -68 -301 -145 l-265 -140 -10 26 c-29 78 -16 69 -324 199
-198 83 -235 96 -296 99 -49 3 -88 -2 -130 -15z m425 -145 c236 -98 246 -103
263 -139 16 -31 17 -42 7 -73 -12 -36 -59 -74 -91 -74 -9 0 -110 38 -225 85
-115 47 -214 85 -221 85 -18 0 -28 -29 -15 -42 24 -24 417 -178 455 -178 56 0
103 24 132 68 22 34 61 57 305 185 169 89 290 147 307 147 39 0 69 -23 83 -64
15 -45 0 -79 -47 -109 -78 -50 -770 -425 -816 -442 -70 -26 -123 -17 -362 65
-207 71 -211 71 -260 59 -27 -6 -55 -14 -62 -16 -10 -4 -53 119 -133 379 l-18
56 147 51 c180 62 215 71 266 64 22 -3 150 -51 285 -107z m-683 -241 c57 -176
101 -325 99 -330 -5 -15 -177 -68 -186 -58 -13 14 -212 645 -205 652 11 10
159 60 175 58 10 -2 47 -104 117 -322z"/>
</g>
</svg>
